<svg width="23" height="22" viewBox="0 0 23 22" fill="none" xmlns="http://www.w3.org/2000/svg">
<path d="M21.6666 10.1867C21.9144 10.0021 22.0982 9.7446 22.1923 9.45029C22.2863 9.15598 22.2859 8.83962 22.191 8.54556C22.0962 8.2515 21.9117 7.9945 21.6635 7.81058C21.4152 7.62667 21.1156 7.52506 20.8066 7.52002L14.8067 7.29335C14.7771 7.29131 14.7489 7.28079 14.7252 7.26305C14.7016 7.24531 14.6835 7.2211 14.6733 7.19335L12.6 1.59335C12.4958 1.30844 12.3066 1.06243 12.058 0.888614C11.8094 0.7148 11.5133 0.621582 11.21 0.621582C10.9066 0.621582 10.6106 0.7148 10.362 0.888614C10.1134 1.06243 9.92416 1.30844 9.81998 1.59335L7.75332 7.21335C7.7431 7.2411 7.72508 7.26531 7.70142 7.28305C7.67777 7.30079 7.64949 7.31131 7.61998 7.31335L1.61999 7.54002C1.31106 7.54506 1.01145 7.64667 0.763181 7.83058C0.514911 8.0145 0.330426 8.2715 0.235592 8.56556C0.140759 8.85962 0.140333 9.17598 0.234375 9.47029C0.328417 9.7646 0.512211 10.0221 0.759986 10.2067L5.46665 13.9067C5.49021 13.9252 5.50781 13.9503 5.51729 13.9787C5.52677 14.0071 5.52771 14.0377 5.51998 14.0667L3.89999 19.8067C3.81604 20.099 3.82417 20.41 3.92328 20.6975C4.02238 20.9851 4.20765 21.2351 4.45388 21.4135C4.70011 21.592 4.99535 21.6903 5.29942 21.6951C5.6035 21.6998 5.90165 21.6107 6.15332 21.44L11.1267 18.1067C11.1511 18.0898 11.1802 18.0807 11.21 18.0807C11.2398 18.0807 11.2688 18.0898 11.2933 18.1067L16.2666 21.44C16.5149 21.6166 16.812 21.7114 17.1166 21.7114C17.4213 21.7114 17.7184 21.6166 17.9667 21.44C18.2129 21.2632 18.3984 21.0144 18.4975 20.7279C18.5966 20.4414 18.6044 20.1312 18.52 19.84L16.8867 14.08C16.878 14.0511 16.8785 14.0202 16.888 13.9916C16.8976 13.963 16.9157 13.938 16.94 13.92L21.6666 10.1867Z" fill="#FFA800" fill-opacity="0.8"/>
</svg>
